<?xml version="1.0" encoding="UTF-8" standalone="no"?><svg xmlns="http://www.w3.org/2000/svg" xmlns:xlink="http://www.w3.org/1999/xlink" fill="#000000" height="300" preserveAspectRatio="xMidYMid meet" version="1.1" viewBox="0.0 -0.0 300.0 300.0" width="300" zoomAndPan="magnify">
 <g id="surface1">
  <g id="change1_1"><path d="m150-0.0039062c82.86 0 150 67.199 150 150.05 0 82.8-67.14 150-150 150-82.855 0-150-67.2-150-150 0-82.855 67.145-150.05 150-150.05" fill="#fffbee" fill-rule="evenodd"/></g>
  <g id="change2_1"><path d="m129.82 89.848c-8.93-7.051-10.49-20.016-3.39-29 7.05-8.93 20.07-10.493 29-3.391l95.07 75.163c5.65 3.71 9.47 10.11 9.47 17.43 0 7.26-3.82 13.66-9.47 17.38l-95.07 75.16c-8.93 7.1-21.95 5.54-29-3.39-7.1-8.93-5.54-21.95 3.39-29l49.82-39.43h-118.79c-11.459 0-20.768-9.26-20.768-20.72s9.309-20.77 20.766-20.77h118.79l-49.82-39.432" fill="#d66364"/></g>
 </g>
</svg>